<?xml version="1.0" encoding="UTF-8" standalone="no"?>
<!-- Created with Inkscape (http://www.inkscape.org/) -->

<svg
   xmlns:dc="http://purl.org/dc/elements/1.1/"
   xmlns:cc="http://creativecommons.org/ns#"
   xmlns:rdf="http://www.w3.org/1999/02/22-rdf-syntax-ns#"
   xmlns:svg="http://www.w3.org/2000/svg"
   xmlns="http://www.w3.org/2000/svg"
   xmlns:sodipodi="http://sodipodi.sourceforge.net/DTD/sodipodi-0.dtd"
   xmlns:inkscape="http://www.inkscape.org/namespaces/inkscape"
   width="332.189mm"
   height="168.41096mm"
   viewBox="0 0 332.189 168.41096"
   version="1.1"
   id="svg8"
   sodipodi:docname="logo.svg"
   inkscape:version="0.92.1 r15371">
  <defs
     id="defs2">
    <filter
       style="color-interpolation-filters:sRGB"
       inkscape:label="Drop Shadow"
       id="filter5652">
      <feFlood
         flood-opacity="0.498039"
         flood-color="rgb(0,0,0)"
         result="flood"
         id="feFlood5642" />
      <feComposite
         in="SourceGraphic"
         in2="flood"
         operator="in"
         result="composite1"
         id="feComposite5644" />
      <feGaussianBlur
         in="composite1"
         stdDeviation="4"
         result="blur"
         id="feGaussianBlur5646" />
      <feOffset
         dx="0"
         dy="-6.38378e-016"
         result="offset"
         id="feOffset5648" />
      <feComposite
         in="SourceGraphic"
         in2="offset"
         operator="over"
         result="composite2"
         id="feComposite5650" />
    </filter>
    <filter
       style="color-interpolation-filters:sRGB"
       inkscape:label="Drop Shadow"
       id="filter5736">
      <feFlood
         flood-opacity="0.498039"
         flood-color="rgb(0,0,0)"
         result="flood"
         id="feFlood5726" />
      <feComposite
         in="SourceGraphic"
         in2="flood"
         operator="in"
         result="composite1"
         id="feComposite5728" />
      <feGaussianBlur
         in="composite1"
         stdDeviation="2"
         result="blur"
         id="feGaussianBlur5730" />
      <feOffset
         dx="0"
         dy="-6.38378e-016"
         result="offset"
         id="feOffset5732" />
      <feComposite
         in="SourceGraphic"
         in2="offset"
         operator="over"
         result="composite2"
         id="feComposite5734" />
    </filter>
  </defs>
  <sodipodi:namedview
     id="base"
     pagecolor="#ffffff"
     bordercolor="#666666"
     borderopacity="1.0"
     inkscape:pageopacity="0.0"
     inkscape:pageshadow="2"
     inkscape:zoom="0.98994949"
     inkscape:cx="433.02839"
     inkscape:cy="311.88359"
     inkscape:document-units="mm"
     inkscape:current-layer="layer1"
     showgrid="false"
     inkscape:window-width="1920"
     inkscape:window-height="1011"
     inkscape:window-x="-8"
     inkscape:window-y="38"
     inkscape:window-maximized="1"
     fit-margin-top="0"
     fit-margin-left="0"
     fit-margin-right="0"
     fit-margin-bottom="0" />
  <metadata
     id="metadata5">
    <rdf:RDF>
      <cc:Work
         rdf:about="">
        <dc:format>image/svg+xml</dc:format>
        <dc:type
           rdf:resource="http://purl.org/dc/dcmitype/StillImage" />
        <dc:title />
      </cc:Work>
    </rdf:RDF>
  </metadata>
  <g
     inkscape:label="Layer 1"
     inkscape:groupmode="layer"
     id="layer1"
     transform="translate(746.63238,-40.374343)">
    <g
       id="g4912"
       transform="translate(-146.07078,291.73754)">
      <path
         style="fill:#f6f6f9;stroke-width:1"
         d="m -521.436,-83.08663 c -3.3515,-1.114596 -4.41957,-5.807837 -1.95901,-8.608157 1.64229,-1.869062 -0.12309,-1.763533 29.50211,-1.763533 28.8102,0 27.21263,0.07705 28.79419,-1.388689 2.35086,-2.178701 2.28037,-5.851921 -0.14784,-7.704001 -0.90937,-0.69361 -12.15482,5.354744 -12.3731,5.530319 -0.48741,0.392049 -4.11712,1.695381 -4.87374,1.750025 -0.30262,0.02186 -2.4023,0.08018 -4.58511,-0.139607 -1.20055,-0.120885 -2.65906,-0.766358 -3.24115,-0.958464 -0.67595,-0.223086 -2.42126,-2.094976 -2.52625,-2.431266 -0.105,-0.336294 -1.67711,-3.074387 -1.83984,-3.950697 -0.25022,-1.34752 0.41105,-1.3199 -30.58318,-1.27719 -25.73075,0.0355 -26.96599,0.0154 -27.78808,-0.45134 -3.12741,-1.7756 -3.85368,-6.14174 -1.38612,-8.33297 1.77669,-1.57772 1.51764,-1.5482 13.58686,-1.5482 12.51241,0 12.8105,-0.0382 14.56726,-1.86664 2.35301,-2.44901 1.29527,-7.01838 -1.94466,-8.40091 -0.56024,-0.23906 -8.85326,-0.31615 -34.13125,-0.31726 -22.15284,-10e-4 -33.72237,-0.0934 -34.37517,-0.27475 -4.44351,-1.23409 -4.9151,-7.43677 -0.73582,-9.67817 0.8941,-0.47952 2.48217,-0.49884 46.0375,-0.56032 54.3153,-0.0767 50.92394,0.32555 50.18053,-5.95141 -0.5377,-4.54001 -0.55673,-4.54426 -21.05528,-4.70054 -18.66935,-0.14234 -17.83019,-0.0752 -19.42348,-1.55369 -2.36117,-2.191 -1.83528,-6.20376 1.04791,-7.99605 1.02428,-0.63672 1.02428,-0.63672 14.38574,-0.76901 14.00598,-0.13868 15.875,-0.35934 15.875,-1.8743 0,-0.14547 0.22367,-0.50458 0.49705,-0.79802 3.34415,-3.58952 -0.21498,-7.69955 -6.84705,-7.90685 -4.63036,-0.14473 -5.53626,-0.37432 -6.67089,-1.69062 -2.41483,-2.80149 -1.90446,-6.22834 1.22944,-8.25493 0.70973,-0.45896 1.45316,-0.50929 8.67498,-0.58719 8.72012,-0.0941 9.51818,-0.21842 10.82976,-1.68748 2.36473,-2.64867 1.81887,-6.46521 -1.1695,-8.1769 -1.11983,-0.64142 -1.11983,-0.64142 -24.93233,-0.77371 -23.8125,-0.13229 -23.8125,-0.13229 -24.92063,-0.92604 -3.59134,-2.57248 -2.60505,-8.21171 1.61561,-9.23748 0.42464,-0.1032 5.75065,-0.17688 11.83558,-0.16374 10.45978,0.0226 11.11789,-0.004 12.06022,-0.48979 4.08046,-2.10291 4.25517,-7.17946 0.33379,-9.69872 -0.24469,-0.1572 -13.46273,-0.30445 -34.67838,-0.38632 -37.77447,-0.14576 -35.42351,-0.004 -37.02224,-2.22649 -0.94634,-1.31535 -1.34239,-5.18184 -0.53078,-5.18184 0.1111,0 0.33804,-0.32841 0.5043,-0.72981 1.01847,-2.45879 -2.17365,-2.29855 48.70974,-2.44519 51.15797,-0.14743 46.47698,0.0435 48.41747,-1.9751 1.74158,-1.81168 1.42968,-5.76431 -0.57012,-7.22507 -0.25347,-0.18514 -0.66646,-0.54233 -0.91776,-0.79375 -0.42102,-0.42122 -1.84039,-0.46751 -18.07081,-0.58941 -16.06654,-0.12067 -17.68364,-0.1725 -18.40766,-0.58995 -3.48495,-2.00933 -3.75921,-6.88998 -0.50627,-9.00943 1.11072,-0.72369 1.11072,-0.72369 14.67713,-0.78768 10.57205,-0.0499 13.59074,-0.13698 13.6766,-0.39471 0.0606,-0.18191 0.287,-0.33073 0.50311,-0.33073 1.34499,0 2.99176,-2.87598 2.99964,-5.23866 0.005,-1.62489 1.35203,-3.4719 3.03083,-4.15709 2.05227,-0.83762 187.74704,-0.79465 189.12007,0.0438 4.0177,2.45333 3.11145,8.62787 -1.40859,9.59725 -0.83505,0.17908 -5.86435,0.28389 -13.62236,0.28389 -13.17273,0 -13.28161,0.01 -14.69268,1.35411 -2.06362,1.96566 -2.08823,5.67201 -0.0503,7.57616 1.69976,1.58815 0.75565,1.50877 19.65962,1.65307 20.64652,0.1576 20.64467,0.15714 20.63843,5.15053 -0.007,5.40237 3.67152,5.01594 -49.19351,5.16822 -49.25619,0.14188 -46.56637,0.0642 -48.02591,1.38716 -0.2821,0.25571 -0.58917,0.46492 -0.68237,0.46492 -1.18466,0 -1.54943,4.20739 -0.53695,6.19331 1.55245,3.04504 -0.34586,2.90916 37.47482,2.68238 35.09166,-0.21042 33.69707,-0.25534 35.42702,1.14114 2.10778,1.70149 2.40557,5.49209 0.58074,7.39214 -1.74612,1.81809 -1.19481,1.74529 -14.37968,1.89878 -13.45973,0.1567 -13.28465,0.12233 -14.83604,2.91278 -1.08667,1.95452 -0.42045,5.19102 1.27463,6.19233 0.41458,0.2449 0.95795,0.64945 1.20748,0.89902 0.42373,0.42379 3.29483,0.46248 43.48639,0.58604 40.59007,0.12478 43.05908,0.15867 43.49739,0.59704 0.25559,0.25562 0.69356,0.58723 0.97325,0.73691 0.27969,0.14969 0.50853,0.44657 0.50853,0.65973 0,0.21316 0.10022,0.38757 0.2227,0.38757 0.3058,0 0.83563,1.85293 0.83563,2.92232 0,1.31691 -0.57076,2.68912 -1.41822,3.40957 -0.41619,0.35385 -0.94343,0.8301 -1.1716,1.05834 -0.36973,0.36983 -3.3958,0.42937 -27.81824,0.54727 -29.68249,0.14329 -29.36804,0.12418 -29.38449,1.78593 -0.003,0.18191 -0.16571,0.33073 -0.3642,0.33073 -0.60534,0 -1.31268,2.2767 -1.1456,3.68737 0.43244,3.6513 2.17393,4.7793 7.37857,4.7793 5.16152,0 6.68491,0.65305 7.89271,3.38342 1.11284,2.51576 -0.25075,5.98352 -2.58612,6.57686 -0.32742,0.0832 -0.59531,0.2533 -0.59531,0.37801 0,0.12472 -6.15162,0.26064 -13.67026,0.30205 -10.64701,0.0586 -13.69459,0.14843 -13.78037,0.40601 -0.0606,0.18191 -0.25913,0.33073 -0.44122,0.33073 -0.93239,0 -2.50108,2.71527 -2.52214,4.36563 -0.0236,1.83952 1.48677,4.63021 2.50582,4.63021 0.19105,0 0.39695,0.14882 0.45751,0.33073 0.0861,0.25842 3.98511,0.35965 17.83499,0.46302 17.72483,0.13229 17.72483,0.13229 18.79023,0.83757 3.04593,2.01639 3.17397,6.22024 0.26008,8.5398 -1.15263,0.91754 -11.51051,1.09725 -67.53521,1.17178 -25.68912,0.0342 -25.68912,0.0342 -26.85522,0.64904 -3.33176,1.75678 -3.76261,6.38503 -0.7998,8.59156 0.52614,0.39185 1.04178,0.83218 1.14586,0.97853 0.1252,0.17605 11.76426,0.26609 34.39583,0.26609 33.75891,0 34.21727,0.007 35.02054,0.52917 3.41376,2.21943 4.01408,5.37832 1.5733,8.279 -1.2895,1.53251 -2.16612,1.63348 -14.82945,1.70809 -8.56329,0.0505 -11.48054,0.14803 -11.77396,0.39382 -0.21455,0.1797 -0.78139,0.64044 -1.25965,1.02385 -2.11606,1.69639 -2.20655,5.97037 -0.16053,7.58395 1.88622,1.48757 -1.50653,1.37311 44.95094,1.5165 42.38342,0.13081 42.86938,0.1382 43.47901,0.66146 1.49846,1.28618 1.89703,1.71713 1.89703,2.05111 0,0.19613 0.12592,0.48251 0.27983,0.6364 0.38801,0.38802 0.66563,3.26561 0.31504,3.26561 -0.1501,0 -0.35415,0.323636 -0.45342,0.71919 -0.77264,3.078451 0.29456,2.971512 -30.43624,3.049834 -23.78885,0.06063 -26.55176,0.110863 -27.38437,0.497869 -1.88315,0.875305 -3.1622,2.903135 -3.17101,5.027359 -0.008,1.891556 -1.31294,3.854905 -3.04289,4.577736 -0.89154,0.372507 -187.30979,0.835996 -188.41496,0.468452 z m 193.30594,-9.974815 c 0,-0.07276 -0.0595,-0.132292 -0.13229,-0.132292 -0.0728,0 -0.13229,0.05953 -0.13229,0.132292 0,0.07276 0.0595,0.132292 0.13229,0.132292 0.0728,0 0.13229,-0.05953 0.13229,-0.132292 z m 57.15,-2.116667 c 0,-0.07276 -0.0595,-0.132291 -0.13229,-0.132291 -0.0728,0 -0.13229,0.05953 -0.13229,0.132291 0,0.07276 0.0595,0.132292 0.13229,0.132292 0.0728,0 0.13229,-0.05953 0.13229,-0.132292 z m -88.90035,-9.260418 c 0,-0.0728 -0.0595,-0.13229 -0.13229,-0.13229 -0.0728,0 -0.1323,0.0595 -0.1323,0.13229 0,0.0728 0.0595,0.13229 0.1323,0.13229 0.0728,0 0.13229,-0.0595 0.13229,-0.13229 z m -1.19063,-7.54062 c 0.0899,-0.14552 0.0374,-0.26459 -0.11668,-0.26459 -0.15409,0 -0.28019,0.11907 -0.28019,0.26459 0,0.14552 0.0525,0.26458 0.11668,0.26458 0.0642,0 0.19026,-0.11906 0.28019,-0.26458 z m -238.25729,-19.44688 c 0,-0.0728 -0.0595,-0.13229 -0.13229,-0.13229 -0.0728,0 -0.1323,0.0595 -0.1323,0.13229 0,0.0728 0.0595,0.13229 0.1323,0.13229 0.0728,0 0.13229,-0.0595 0.13229,-0.13229 z m 193.41042,0 c 0,-0.0728 -0.0595,-0.13229 -0.13229,-0.13229 -0.0728,0 -0.1323,0.0595 -0.1323,0.13229 0,0.0728 0.0595,0.13229 0.1323,0.13229 0.0728,0 0.13229,-0.0595 0.13229,-0.13229 z m 0.26458,-1.85208 c 0,-0.0728 -0.0595,-0.13229 -0.13229,-0.13229 -0.0728,0 -0.13229,0.0595 -0.13229,0.13229 0,0.0728 0.0595,0.13229 0.13229,0.13229 0.0728,0 0.13229,-0.0595 0.13229,-0.13229 z m 2.11667,-2.11667 c 0,-0.0728 -0.0595,-0.13229 -0.13229,-0.13229 -0.0728,0 -0.1323,0.0595 -0.1323,0.13229 0,0.0728 0.0595,0.13229 0.1323,0.13229 0.0728,0 0.13229,-0.0595 0.13229,-0.13229 z m -98.95417,-0.79375 c 0,-0.0728 -0.0595,-0.13229 -0.13229,-0.13229 -0.0728,0 -0.13229,0.0595 -0.13229,0.13229 0,0.0728 0.0595,0.13229 0.13229,0.13229 0.0728,0 0.13229,-0.0595 0.13229,-0.13229 z m -37.57079,-18.52085 c 0,-0.0728 -0.0595,-0.13229 -0.1323,-0.13229 -0.0728,0 -0.13229,0.0595 -0.13229,0.13229 0,0.0728 0.0595,0.13229 0.13229,0.13229 0.0728,0 0.1323,-0.0595 0.1323,-0.13229 z m 211.93124,-12.70002 c 0,-0.0728 -0.0595,-0.13229 -0.13229,-0.13229 -0.0728,0 -0.13229,0.0595 -0.13229,0.13229 0,0.0728 0.0595,0.13229 0.13229,0.13229 0.0728,0 0.13229,-0.0595 0.13229,-0.13229 z m -33.07292,-23.28331 c 0,-0.0728 -0.0595,-0.1323 -0.13229,-0.1323 -0.0728,0 -0.13229,0.0595 -0.13229,0.1323 0,0.0728 0.0595,0.13229 0.13229,0.13229 0.0728,0 0.13229,-0.0595 0.13229,-0.13229 z m -162.71875,-14.55209 c 0,-0.0728 -0.0595,-0.13229 -0.13229,-0.13229 -0.0728,0 -0.13229,0.0595 -0.13229,0.13229 0,0.0728 0.0595,0.13229 0.13229,0.13229 0.0728,0 0.13229,-0.0595 0.13229,-0.13229 z m -3.51124,-4.26089 c -0.0879,-0.0879 -0.31613,-0.0973 -0.50712,-0.0209 -0.21107,0.0845 -0.14837,0.14716 0.15985,0.15985 0.27892,0.0115 0.43519,-0.051 0.34727,-0.13896 z m 123.10291,-0.23702 c 0,-0.0728 -0.0595,-0.1323 -0.13229,-0.1323 -0.0728,0 -0.1323,0.0595 -0.1323,0.1323 0,0.0728 0.0595,0.13229 0.1323,0.13229 0.0728,0 0.13229,-0.0595 0.13229,-0.13229 z m -192.96945,-0.83785 c -0.097,-0.097 -0.17639,-0.0176 -0.17639,0.17639 0,0.19402 0.0794,0.2734 0.17639,0.17639 0.097,-0.097 0.097,-0.25577 0,-0.35278 z m 288.21945,-11.06839 c 0,-0.0728 -0.0595,-0.1323 -0.13229,-0.1323 -0.0728,0 -0.13229,0.0595 -0.13229,0.1323 0,0.0728 0.0595,0.13229 0.13229,0.13229 0.0728,0 0.13229,-0.0595 0.13229,-0.13229 z m -36.3361,-19.62321 c -0.097,-0.097 -0.25578,-0.097 -0.3528,0 -0.097,0.097 -0.0176,0.17639 0.1764,0.17639 0.19402,0 0.27339,-0.0794 0.1764,-0.17639 z m 29.72152,-2.07257 c 0,-0.0728 -0.0595,-0.13229 -0.1323,-0.13229 -0.0728,0 -0.13229,0.0595 -0.13229,0.13229 0,0.0728 0.0595,0.13229 0.13229,0.13229 0.0728,0 0.1323,-0.0595 0.1323,-0.13229 z m 0.26458,-4.49791 c 0,-0.0728 -0.0595,-0.1323 -0.13229,-0.1323 -0.0728,0 -0.13229,0.0595 -0.13229,0.1323 0,0.0728 0.0595,0.13229 0.13229,0.13229 0.0728,0 0.13229,-0.0595 0.13229,-0.13229 z m -2.11667,-2.11667 c 0,-0.0728 -0.0595,-0.13229 -0.13229,-0.13229 -0.0728,0 -0.13229,0.0595 -0.13229,0.13229 0,0.0728 0.0595,0.13229 0.13229,0.13229 0.0728,0 0.13229,-0.0595 0.13229,-0.13229 z"
         id="path4920"
         inkscape:connector-curvature="0"
         sodipodi:nodetypes="cssscccsccccccscccccscsccsscscsccsscccccscscssccsssccscsccsccscscsssccscccsccsssccscscsccsccscscsccscccsccccccscscscscccccssssssssssssssscssscssssssssssssssssssssssssssssssssssssssssssssscccccssssscsccsssssscsssssssssssssssss" />
      <path
         style="fill:#3b37f9;stroke-width:1;filter:url(#filter5736)"
         d="m -476.42902,-150.26372 c -6.62739,-0.879 -12.70296,-6.56773 -14.28088,-13.37159 -0.91147,-3.93017 -0.42986,-63.95704 0.52418,-65.33309 1.17735,-1.69812 3.22466,-2.68497 5.22096,-2.51661 1.43781,0.12126 14.69337,7.24511 14.94131,8.02981 0.038,0.12031 -3.61842,2.34246 -8.12541,4.9381 -8.19454,4.71934 -8.19454,4.71934 -8.26443,22.0266 -0.0384,9.51899 -0.0464,17.30724 -0.0178,17.30722 0.0287,-2e-5 0.84188,-0.5978 1.80713,-1.32839 11.41201,-8.63772 27.36938,-0.84433 27.36938,13.36689 0,10.29594 -9.01091,18.22908 -19.17447,16.88106 z m 4.23333,-10.95489 c 1.66479,-0.45396 3.69791,-2.6985 4.10925,-4.53658 1.29596,-5.79095 -5.73657,-10.02872 -10.10026,-6.08638 -5.08387,4.59296 -0.66028,12.43665 5.99101,10.62296 z"
         id="path4916"
         inkscape:connector-curvature="0" />
      <path
         style="fill:#fb1c50;stroke-width:1;filter:url(#filter5652)"
         d="m -487.95546,-103.44634 c -3.21023,-1.62787 -3.01737,-0.089 -3.08664,-24.62893 -0.061,-21.60701 -0.061,-21.60701 1.05833,-19.48309 11.27401,21.39231 41.49228,20.94936 51.90606,-0.76085 7.52407,-15.68586 -0.62032,-34.12269 -17.61778,-39.88215 -10.57246,-3.58241 -16.43615,-12.76055 -14.66969,-22.96173 0.62447,-3.60626 3.23685,-9.23652 4.51284,-9.72616 0.17404,-0.0668 4.59252,2.34076 9.81884,5.35011 5.22632,3.00934 17.77724,10.23592 27.89094,16.05905 10.11369,5.82313 22.3176,12.85061 27.11979,15.61661 4.80219,2.766 11.41016,6.56674 14.68437,8.44608 7.67104,4.40303 8.44728,5.16332 8.46085,8.28682 -0.78828,3.42539 2.14969,2.21436 -26.98168,18.95765 -9.72973,5.59218 -33.55073,19.31693 -38.23229,22.02799 -2.32834,1.34832 -7.44802,4.30033 -11.37709,6.56001 -3.92906,2.25969 -11.8334,6.81335 -17.56521,10.11926 -13.29353,7.66725 -12.93738,7.53261 -15.92164,6.01933 z"
         id="path4914"
         inkscape:connector-curvature="0"
         sodipodi:nodetypes="sssscsccssccsccss" />
    </g>
  </g>
</svg>
